<?xml version="1.0" standalone="no"?>
<!DOCTYPE svg PUBLIC "-//W3C//DTD SVG 20010904//EN"
 "http://www.w3.org/TR/2001/REC-SVG-20010904/DTD/svg10.dtd">
<svg version="1.0" xmlns="http://www.w3.org/2000/svg"
 width="640.000000pt" height="640.000000pt" viewBox="0 0 640.000000 640.000000"
 preserveAspectRatio="xMidYMid meet">
<metadata>
Created by potrace 1.11, written by Peter Selinger 2001-2013
</metadata>
<g transform="translate(0.000000,640.000000) scale(0.100000,-0.100000)"
fill="#000000" stroke="none">
<path d="M455 6385 c-200 -43 -362 -191 -426 -387 l-24 -73 0 -2725 0 -2725
24 -73 c58 -177 195 -314 372 -373 l74 -24 2730 0 2730 0 65 23 c181 65 314
199 371 374 l24 73 0 2725 0 2725 -24 73 c-57 173 -198 316 -370 375 l-66 22
-2710 2 c-2210 1 -2721 -1 -2770 -12z"/>
</g>
</svg>
